<svg xmlns="http://www.w3.org/2000/svg" version="1.1" xmlns:xlink="http://www.w3.org/1999/xlink" xmlns:svgjs="http://svgjs.dev/svgjs" width="1500" height="390" viewBox="0 0 1500 390"><g transform="matrix(1,0,0,1,-0.9084522071641459,-0.5299991886409714)"><svg viewBox="0 0 396 103" data-background-color="#ffffff" preserveAspectRatio="xMidYMid meet" height="390" width="1500" xmlns="http://www.w3.org/2000/svg" xmlns:xlink="http://www.w3.org/1999/xlink"><g id="tight-bounds" transform="matrix(1,0,0,1,0.24008861730862918,0.13997414469235991)"><svg viewBox="0 0 395.52 102.72005171061528" height="102.72005171061528" width="395.52"><g><svg viewBox="0 0 395.52 102.72005171061528" height="102.72005171061528" width="395.52"><g><svg viewBox="0 0 395.52 102.72005171061528" height="102.72005171061528" width="395.52"><g id="textblocktransform"><svg viewBox="0 0 395.52 102.72005171061528" height="102.72005171061528" width="395.52" id="textblock"><g><svg viewBox="0 0 395.52 102.72005171061528" height="102.72005171061528" width="395.52"><path d="M394.594 22.031C392.735 11.369 387.435 8.405 387.435 8.405 371.165-2.577 350.86-0.21 332.619 1.368 300.414 1.432 268.339 3.778 236.208 5.036 168.767 5.228 100.749 2.072 33.643 9.855 27.339 12.243-6.54 10.324 1.121 23.396 3.129 28.834 10.456 34.869 10.232 39.859 11.236 40.733 12.631 38.729 13.226 39.987 15.309 43.377 18.711 41.778 21.501 43.783 17.614 49.135 20.403 53.592 23.062 58.262 18.377 59.478 12.371 58.902 9.675 62.932 9.396 65.854 7.89 65.299 6.235 65.171 5.026 65.086 2.59 65.406 2.999 66.323 4.394 69.457-1.594 71.27 2.162 74.341-0.422 77.667 3.948 80.546 3.353 84.15 3.278 84.875 3.687 85.494 4.338 85.664 7.22 86.581 3.018 88.372 3.464 90.313 33.029 103.577 65.104 94.407 95.394 100.506 103.259 96.241 97.346 102.02 100.489 101.124 102.943 100.08 104.728 104.408 107.499 101.956 107.927 101.252 107.276 99.589 108.8 99.909 109.6 100.08 110.307 100.037 110.418 99.056 110.586 97.585 109.117 98.502 108.726 97.734 112.947 93.853 111.906 103.086 115.866 102.702 115.68 101.572 114.528 99.952 116.889 100.165 119.232 98.544 119.306 97.201 121.389 100.847 121.463 101.636 121.835 102.191 122.43 102.575 128.938 98.608 135.409 103.982 142.233 102.191 146.417 100.229 150.433 103.257 154.672 102.511 156.16 101.913 157.666 100.847 159.098 102.639 176.632 103.022 195.319 101.423 211.943 102.702 256.364 100.314 303.836 103.683 350.674 100.527 361.719 99.312 373.192 97.585 383.958 96.198 383.958 96.198 392.679 92.403 392.679 75.343S394.538 60.416 394.817 46.832C395.096 33.248 396.398 32.694 394.538 22.031Z" opacity="1" fill="#4b91f1" data-fill-palette-color="tertiary"></path><g transform="matrix(1,0,0,1,55.76832,26.230666666666668)"><svg width="283.98335999999995" viewBox="4.5 -34.15 197.18 34.9" height="50.25871837728194" data-palette-color="#ffffff"><path d="M9.35 0L4.5 0 4.5-33.1 15.25-33.1Q18.55-33.1 21.15-32.08 23.75-31.05 25.25-29.15 26.75-27.25 26.75-24.5L26.75-24.5Q26.75-21.25 25.1-19.07 23.45-16.9 20.5-15.83 17.55-14.75 13.65-14.75L13.65-14.75 9.35-14.75 9.35 0ZM9.35-30.45L9.35-16.2 13.8-16.2Q16.35-16.2 17.9-17.1 19.45-18 20.25-19.35 21.05-20.7 21.33-22.05 21.6-23.4 21.6-24.25L21.6-24.25Q21.6-24.55 21.48-25.45 21.35-26.35 20.83-27.5 20.3-28.65 19.18-29.7 18.05-30.75 16.05-31.3L16.05-31.3Q14.5-31.3 12.55-31.05 10.6-30.8 9.35-30.45L9.35-30.45ZM48.25-1.25L45.65 0.65 41.6-3Q39.8-1.35 38.07-0.38 36.35 0.6 34.3 0.6L34.3 0.6Q32.25 0.6 30.6-0.75 28.95-2.1 28.95-4.6L28.95-4.6Q28.95-6.55 30.25-7.88 31.55-9.2 33.55-10 35.55-10.8 37.7-11.2 39.85-11.6 41.55-11.7L41.55-11.7 41.55-16.4Q41.55-20.55 36.75-20.55L36.75-20.55Q35.5-20.55 33.87-20.28 32.25-20 30.25-19.35L30.25-19.35 29.8-20.6Q30.35-21.05 31.65-21.65 32.95-22.25 34.65-22.73 36.35-23.2 38.1-23.2L38.1-23.2Q40.95-23.2 42.5-22.38 44.05-21.55 44.7-20.28 45.35-19 45.5-17.63 45.65-16.25 45.65-15.15L45.65-15.15 45.65-6.65Q45.65-4.95 46.12-3.85 46.6-2.75 47.22-2.15 47.85-1.55 48.25-1.25L48.25-1.25ZM36.2-1.7L36.2-1.7Q37.4-1.95 38.62-2.68 39.85-3.4 40.7-4.17 41.55-4.95 41.55-5.3L41.55-5.3 41.55-10.45Q37.8-10.2 35.57-8.83 33.35-7.45 33.35-5.9L33.35-5.9Q33.35-4.35 34.17-3.23 35-2.1 36.2-1.7ZM60.9 0.6L60.9 0.6Q58.1 0.6 55.8-0.7 53.5-2 52.15-4.5 50.8-7 50.8-10.6L50.8-10.6Q50.8-14.45 52.22-17.28 53.65-20.1 56.12-21.65 58.6-23.2 61.7-23.2L61.7-23.2Q63.35-23.2 65.07-22.73 66.8-22.25 67.65-21.9L67.65-21.9 67.15-18.6Q64.8-19.85 62.82-20.38 60.85-20.9 59.6-20.9L59.6-20.9Q57.7-19.95 56.62-18.15 55.55-16.35 55.12-14.43 54.7-12.5 54.7-11L54.7-11Q54.7-8.45 55.75-6.45 56.8-4.45 58.55-3.3 60.3-2.15 62.4-2.15L62.4-2.15Q64.15-2.15 65.5-2.55 66.84-2.95 67.95-3.5L67.95-3.5 67.95-1.75Q66.55-0.85 64.77-0.13 63 0.6 60.9 0.6ZM93.34 0L88.34 0.65 77.74-12.55 77.74 0 73.54 0 73.54-34.15 77.74-34.15 77.74-13 89.29-22.6 92.59-22.6 80.84-13.7 93.34 0ZM108.39 0.75L107.59 0.75 94.94-33.1 100.39-33.1 109.19-6 114.79-22.7 110.89-33.1 116.34-33.1 125.14-6 134.24-33.1 136.74-33.1 124.34 0.75 123.54 0.75 115.89-19.75 108.39 0.75ZM148.69 0.6L148.69 0.6Q145.89 0.6 143.59-0.7 141.29-2 139.94-4.53 138.59-7.05 138.59-10.65L138.59-10.65Q138.59-14.2 139.71-16.6 140.84-19 142.66-20.45 144.49-21.9 146.59-22.55 148.69-23.2 150.64-23.2L150.64-23.2Q153.49-23.2 155.79-21.9 158.09-20.6 159.44-18.1 160.79-15.6 160.79-11.95L160.79-11.95Q160.79-8.4 159.64-6 158.49-3.6 156.66-2.15 154.84-0.7 152.74-0.05 150.64 0.6 148.69 0.6ZM149.64-1.1L149.64-1.1Q151.39-1.1 152.64-2.05 153.89-3 154.66-4.53 155.44-6.05 155.81-7.8 156.19-9.55 156.19-11.2L156.19-11.2Q156.19-13.95 155.51-16.23 154.84-18.5 153.26-19.9 151.69-21.3 148.94-21.3L148.94-21.3Q145.94-20.15 144.54-17.3 143.14-14.45 143.14-11.2L143.14-11.2Q143.14-8.55 143.79-6.23 144.44-3.9 145.86-2.5 147.29-1.1 149.64-1.1ZM169.64 0L165.44 0 165.44-22.6 168.34-22.6 169.49-18.4Q170.14-19.5 171.31-20.6 172.49-21.7 174.01-22.53 175.54-23.35 177.14-23.6L177.14-23.6 177.64-20.15Q176.34-20.15 174.84-19.6 173.34-19.05 171.96-18.2 170.59-17.35 169.64-16.45L169.64-16.45 169.64 0ZM201.68 0L196.68 0.65 186.08-12.55 186.08 0 181.88 0 181.88-34.15 186.08-34.15 186.08-13 197.63-22.6 200.93-22.6 189.18-13.7 201.68 0Z" opacity="1" transform="matrix(1,0,0,1,0,0)" fill="#ffffff" class="wordmark-text-0" data-fill-palette-color="quaternary" id="text-0"></path></svg></g></svg></g></svg></g></svg></g><g></g></svg></g><defs></defs></svg><rect width="395.52" height="102.72005171061528" fill="none" stroke="none" visibility="hidden"></rect></g></svg></g></svg>