<svg xmlns="http://www.w3.org/2000/svg" version="1.1" xmlns:xlink="http://www.w3.org/1999/xlink" xmlns:svgjs="http://svgjs.dev/svgjs" width="1500" height="1500" viewBox="0 0 1500 1500"><rect width="1500" height="1500" fill="#ffffff"></rect><g transform="matrix(0.6666666666666666,0,0,0.6666666666666666,249.39393939393943,678.2000297814683)"><svg viewBox="0 0 396 57" data-background-color="#4a5d5e" preserveAspectRatio="xMidYMid meet" height="215" width="1500" xmlns="http://www.w3.org/2000/svg" xmlns:xlink="http://www.w3.org/1999/xlink"><g id="tight-bounds" transform="matrix(1,0,0,1,0.2400000000000091,0.05301141248588692)"><svg viewBox="0 0 395.52 56.89397717502823" height="56.89397717502823" width="395.52"><g><svg viewBox="0 0 491.85951750821215 70.75203317767148" height="56.89397717502823" width="395.52"><g transform="matrix(1,0,0,1,96.33951750821217,8.279356688485123)"><svg viewBox="0 0 395.52 54.19331980070123" height="54.19331980070123" width="395.52"><g id="textblocktransform"><svg viewBox="0 0 395.52 54.19331980070123" height="54.19331980070123" width="395.52" id="textblock"><g><svg viewBox="0 0 395.52 54.19331980070123" height="54.19331980070123" width="395.52"><g transform="matrix(1,0,0,1,0,0)"><svg width="395.52" viewBox="3 -35.5 264.59 36.26" height="54.19331980070123" data-palette-color="#d2dbc8"><path d="M37.99-25L37.99 0 31.01 0 31.01-25Q31.01-25.73 30.73-26.37 30.44-27 29.97-27.48 29.49-27.95 28.86-28.22 28.22-28.49 27.49-28.49L27.49-28.49Q26.76-28.49 26.12-28.22 25.49-27.95 25.01-27.48 24.54-27 24.27-26.37 24-25.73 24-25L24-25 24 0 16.99 0 16.99-25Q16.99-25.73 16.72-26.37 16.46-27 15.98-27.48 15.5-27.95 14.87-28.22 14.23-28.49 13.5-28.49L13.5-28.49Q12.77-28.49 12.13-28.22 11.5-27.95 11.02-27.48 10.55-27 10.28-26.37 10.01-25.73 10.01-25L10.01-25 10.01 0 3 0 3-25Q3-27.17 3.82-29.09 4.64-31.01 6.07-32.43 7.5-33.86 9.41-34.68 11.33-35.5 13.5-35.5L13.5-35.5Q15.45-35.5 17.26-34.8 19.07-34.11 20.51-32.79L20.51-32.79Q21.95-34.11 23.74-34.8 25.54-35.5 27.49-35.5L27.49-35.5Q29.66-35.5 31.58-34.68 33.5-33.86 34.92-32.43 36.35-31.01 37.17-29.09 37.99-27.17 37.99-25L37.99-25ZM78.54-17.36L78.54-17.36Q78.54-14.87 77.89-12.56 77.24-10.25 76.07-8.24 74.9-6.23 73.24-4.57 71.58-2.91 69.58-1.72 67.58-0.54 65.26 0.11 62.94 0.76 60.45 0.76L60.45 0.76Q57.96 0.76 55.65 0.11 53.34-0.54 51.33-1.72 49.31-2.91 47.65-4.57 45.99-6.23 44.81-8.24 43.63-10.25 42.98-12.56 42.33-14.87 42.33-17.36L42.33-17.36Q42.33-19.85 42.98-22.17 43.63-24.49 44.81-26.49 45.99-28.49 47.65-30.15 49.31-31.81 51.33-32.98 53.34-34.16 55.65-34.8 57.96-35.45 60.45-35.45L60.45-35.45Q62.94-35.45 65.26-34.8 67.58-34.16 69.58-32.98 71.58-31.81 73.24-30.15 74.9-28.49 76.07-26.49 77.24-24.49 77.89-22.17 78.54-19.85 78.54-17.36ZM71.58-17.36L71.58-17.36Q71.58-19.65 70.7-21.69 69.82-23.73 68.32-25.23 66.82-26.73 64.78-27.61 62.74-28.49 60.45-28.49L60.45-28.49Q58.13-28.49 56.1-27.61 54.07-26.73 52.56-25.23 51.05-23.73 50.17-21.69 49.29-19.65 49.29-17.36L49.29-17.36Q49.29-15.06 50.17-13.05 51.05-11.04 52.56-9.52 54.07-8.01 56.1-7.13 58.13-6.25 60.45-6.25L60.45-6.25Q62.74-6.25 64.78-7.13 66.82-8.01 68.32-9.52 69.82-11.04 70.7-13.05 71.58-15.06 71.58-17.36ZM111.18-17.5L111.18-17.5Q111.18-15.09 110.55-12.85 109.93-10.62 108.78-8.68 107.64-6.74 106.05-5.14 104.46-3.54 102.51-2.39 100.56-1.25 98.32-0.62 96.09 0 93.67 0L93.67 0 83.12 0 83.12-35.01 93.67-35.01Q96.09-35.01 98.32-34.39 100.56-33.76 102.51-32.62 104.46-31.47 106.05-29.87 107.64-28.27 108.78-26.33 109.93-24.39 110.55-22.16 111.18-19.92 111.18-17.5ZM104.17-17.5L104.17-17.5Q104.17-19.68 103.35-21.58 102.53-23.49 101.11-24.91 99.68-26.34 97.76-27.17 95.84-28 93.67-28L93.67-28 90.18-28 90.18-7.01 93.67-7.01Q95.84-7.01 97.76-7.82 99.68-8.64 101.11-10.07 102.53-11.5 103.35-13.42 104.17-15.33 104.17-17.5ZM143.43-35.01L143.43-13.99Q143.43-11.08 142.33-8.53 141.23-5.98 139.32-4.09 137.42-2.2 134.87-1.1 132.32 0 129.41 0L129.41 0Q126.51 0 123.95-1.1 121.4-2.2 119.51-4.09 117.62-5.98 116.52-8.53 115.42-11.08 115.42-13.99L115.42-13.99 115.42-35.01 122.4-35.01 122.4-13.99Q122.4-12.55 122.95-11.28 123.5-10.01 124.46-9.06 125.41-8.11 126.69-7.56 127.97-7.01 129.41-7.01L129.41-7.01Q130.85-7.01 132.13-7.56 133.42-8.11 134.37-9.06 135.32-10.01 135.87-11.28 136.42-12.55 136.42-13.99L136.42-13.99 136.42-35.01 143.43-35.01ZM163.34-35.01L163.34-13.99Q163.34-11.08 162.25-8.53 161.15-5.98 159.26-4.09 157.36-2.2 154.81-1.1 152.26 0 149.36 0L149.36 0Q147.6 0 145.84-0.44L145.84-0.44 145.84-7.96Q146.62-7.5 147.52-7.25 148.43-7.01 149.36-7.01L149.36-7.01Q150.8-7.01 152.08-7.56 153.36-8.11 154.31-9.06 155.26-10.01 155.81-11.28 156.36-12.55 156.36-13.99L156.36-13.99 156.36-35.01 163.34-35.01ZM203.75-17.36L203.75-17.36Q203.75-14.87 203.1-12.56 202.45-10.25 201.28-8.24 200.11-6.23 198.45-4.57 196.79-2.91 194.79-1.72 192.79-0.54 190.47 0.11 188.15 0.76 185.66 0.76L185.66 0.76Q183.17 0.76 180.86 0.11 178.55-0.54 176.54-1.72 174.52-2.91 172.86-4.57 171.2-6.23 170.02-8.24 168.84-10.25 168.19-12.56 167.54-14.87 167.54-17.36L167.54-17.36Q167.54-19.85 168.19-22.17 168.84-24.49 170.02-26.49 171.2-28.49 172.86-30.15 174.52-31.81 176.54-32.98 178.55-34.16 180.86-34.8 183.17-35.45 185.66-35.45L185.66-35.45Q188.15-35.45 190.47-34.8 192.79-34.16 194.79-32.98 196.79-31.81 198.45-30.15 200.11-28.49 201.28-26.49 202.45-24.49 203.1-22.17 203.75-19.85 203.75-17.36ZM196.79-17.36L196.79-17.36Q196.79-19.65 195.91-21.69 195.03-23.73 193.53-25.23 192.03-26.73 189.99-27.61 187.95-28.49 185.66-28.49L185.66-28.49Q183.34-28.49 181.31-27.61 179.28-26.73 177.77-25.23 176.26-23.73 175.38-21.69 174.5-19.65 174.5-17.36L174.5-17.36Q174.5-15.06 175.38-13.05 176.26-11.04 177.77-9.52 179.28-8.01 181.31-7.13 183.34-6.25 185.66-6.25L185.66-6.25Q187.95-6.25 189.99-7.13 192.03-8.01 193.53-9.52 195.03-11.04 195.91-13.05 196.79-15.06 196.79-17.36ZM236.34-10.5L236.34-10.5Q236.34-8.33 235.51-6.42 234.68-4.52 233.25-3.09 231.82-1.66 229.92-0.83 228.01 0 225.84 0L225.84 0 208.33 0 208.33-35.01 225.84-35.01Q228.01-35.01 229.92-34.18 231.82-33.35 233.25-31.92 234.68-30.49 235.51-28.59 236.34-26.68 236.34-24.51L236.34-24.51Q236.34-23.54 236.07-22.51 235.8-21.48 235.31-20.53 234.82-19.58 234.14-18.8 233.46-18.02 232.63-17.5L232.63-17.5Q233.48-17.04 234.16-16.25 234.85-15.45 235.34-14.5 235.82-13.55 236.08-12.51 236.34-11.47 236.34-10.5ZM215.34-13.99L215.34-7.01 225.84-7.01Q226.57-7.01 227.21-7.28 227.84-7.54 228.32-8.02 228.79-8.5 229.06-9.13 229.33-9.77 229.33-10.5L229.33-10.5Q229.33-11.23 229.06-11.87 228.79-12.5 228.32-12.98 227.84-13.45 227.21-13.72 226.57-13.99 225.84-13.99L225.84-13.99 215.34-13.99ZM215.34-28L215.34-21 225.84-21Q226.57-21 227.21-21.26 227.84-21.53 228.32-22.01 228.79-22.49 229.06-23.13 229.33-23.78 229.33-24.51L229.33-24.51Q229.33-25.24 229.06-25.88 228.79-26.51 228.32-26.99 227.84-27.47 227.21-27.73 226.57-28 225.84-28L225.84-28 215.34-28ZM239.58-24.51L239.58-24.51Q239.58-26.68 240.41-28.59 241.24-30.49 242.67-31.92 244.1-33.35 246-34.18 247.91-35.01 250.08-35.01L250.08-35.01 266.14-35.01 266.14-28 250.08-28Q249.35-28 248.71-27.73 248.08-27.47 247.6-26.99 247.13-26.51 246.86-25.88 246.59-25.24 246.59-24.51L246.59-24.51Q246.59-23.78 246.86-23.13 247.13-22.49 247.6-22.01 248.08-21.53 248.71-21.26 249.35-21 250.08-21L250.08-21 257.09-21Q259.26-21 261.18-20.18 263.09-19.36 264.52-17.93 265.95-16.5 266.77-14.59 267.59-12.67 267.59-10.5L267.59-10.5Q267.59-8.33 266.77-6.42 265.95-4.52 264.52-3.09 263.09-1.66 261.18-0.83 259.26 0 257.09 0L257.09 0 241.54 0 241.54-7.01 257.09-7.01Q257.82-7.01 258.45-7.28 259.09-7.54 259.57-8.02 260.04-8.5 260.31-9.13 260.58-9.77 260.58-10.5L260.58-10.5Q260.58-11.23 260.31-11.87 260.04-12.5 259.57-12.98 259.09-13.45 258.45-13.72 257.82-13.99 257.09-13.99L257.09-13.99 250.08-13.99Q247.91-13.99 246-14.82 244.1-15.65 242.67-17.08 241.24-18.51 240.41-20.42 239.58-22.34 239.58-24.51Z" opacity="1" transform="matrix(1,0,0,1,0,0)" fill="#000000" class="wordmark-text-0" data-fill-palette-color="primary" id="text-0"></path></svg></g></svg></g></svg></g></svg></g><g><svg viewBox="0 0 70.75203317767148 70.75203317767148" height="70.75203317767148" width="70.75203317767148"><g><svg></svg></g><g id="icon-0"><svg viewBox="0 0 70.75203317767148 70.75203317767148" height="70.75203317767148" width="70.75203317767148"><g><path d="M0 35.376c0-19.538 15.838-35.376 35.376-35.376 19.538 0 35.376 15.838 35.376 35.376 0 19.538-15.838 35.376-35.376 35.376-19.538 0-35.376-15.838-35.376-35.376zM35.376 65.865c16.838 0 30.489-13.65 30.489-30.489 0-16.838-13.65-30.489-30.489-30.489-16.838 0-30.489 13.65-30.489 30.489 0 16.838 13.65 30.489 30.489 30.489z" data-fill-palette-color="accent" fill="#000000" stroke="transparent"></path></g><g transform="matrix(1,0,0,1,16.57605615143413,20.78984038740346)"><svg viewBox="0 0 37.59992087480322 29.172352402864565" height="29.172352402864565" width="37.59992087480322"><g><svg xmlns="http://www.w3.org/2000/svg" xmlns:xlink="http://www.w3.org/1999/xlink" version="1.1" x="0" y="0" viewBox="23 28 58 45" enable-background="new 0 0 100 100" xml:space="preserve" height="29.172352402864565" width="37.59992087480322" class="icon-dxe-0" data-fill-palette-color="accent" id="dxe-0"><path d="M77 37H65V32.3C65 29.3 63.5 28 60.4 28H43.8C40.8 28 39 29.4 39 32.3V37H26.7C24.1 37 23 38.2 23 40.7V69C23 71.5 24.4 73 27 73H77C79.6 73 81 72.2 81 69.7V40.7C81 38.2 79.6 37 77 37M42 32.3C42 31 42.5 31 43.8 31H60.4C61.7 31 62 31.1 62 32.3V37H42zM78 67.9C78 69 78.1 70 77 70H27.8C26.7 70 26 69 26 67.9V41.7C26 40.6 26.5 40 27.7 40H77C78.1 40 78 40.6 78 41.7z" fill="#000000" data-fill-palette-color="accent"></path></svg></g></svg></g></svg></g></svg></g></svg></g><defs></defs></svg><rect width="395.52" height="56.89397717502823" fill="none" stroke="none" visibility="hidden"></rect></g></svg></g></svg>